<mxfile host="app.diagrams.net" modified="2021-11-15T02:52:30.161Z" agent="5.0 (Windows NT 10.0; Win64; x64) AppleWebKit/537.36 (KHTML, like Gecko) Chrome/95.0.4638.69 Safari/537.36" etag="UIL3Alqzwln7pQq0NoYJ" version="15.7.2" type="github">
  <diagram id="BaHrNxYRPVGOxOnhdPIV" name="Page-1">
    <mxGraphModel dx="868" dy="450" grid="1" gridSize="10" guides="1" tooltips="1" connect="1" arrows="1" fold="1" page="1" pageScale="1" pageWidth="850" pageHeight="1100" math="0" shadow="0">
      <root>
        <mxCell id="0" />
        <mxCell id="1" parent="0" />
        <mxCell id="sA6cSm8eI7CGQmD-1CtN-15" value="" style="rounded=0;whiteSpace=wrap;html=1;" vertex="1" parent="1">
          <mxGeometry x="120" y="320" width="600" height="520" as="geometry" />
        </mxCell>
        <mxCell id="sA6cSm8eI7CGQmD-1CtN-18" value="" style="endArrow=none;html=1;rounded=0;exitX=0.002;exitY=0.075;exitDx=0;exitDy=0;exitPerimeter=0;" edge="1" parent="1" source="sA6cSm8eI7CGQmD-1CtN-15">
          <mxGeometry width="50" height="50" relative="1" as="geometry">
            <mxPoint x="400" y="480" as="sourcePoint" />
            <mxPoint x="720" y="359" as="targetPoint" />
          </mxGeometry>
        </mxCell>
        <mxCell id="sA6cSm8eI7CGQmD-1CtN-20" value="" style="endArrow=none;html=1;rounded=0;entryX=0.667;entryY=0;entryDx=0;entryDy=0;entryPerimeter=0;" edge="1" parent="1" target="sA6cSm8eI7CGQmD-1CtN-15">
          <mxGeometry width="50" height="50" relative="1" as="geometry">
            <mxPoint x="520" y="840" as="sourcePoint" />
            <mxPoint x="470" y="450" as="targetPoint" />
          </mxGeometry>
        </mxCell>
        <mxCell id="sA6cSm8eI7CGQmD-1CtN-21" value="" style="endArrow=none;html=1;rounded=0;entryX=0.333;entryY=-0.002;entryDx=0;entryDy=0;entryPerimeter=0;exitX=0.333;exitY=1;exitDx=0;exitDy=0;exitPerimeter=0;" edge="1" parent="1" source="sA6cSm8eI7CGQmD-1CtN-15" target="sA6cSm8eI7CGQmD-1CtN-15">
          <mxGeometry width="50" height="50" relative="1" as="geometry">
            <mxPoint x="320" y="810" as="sourcePoint" />
            <mxPoint x="350" y="310" as="targetPoint" />
          </mxGeometry>
        </mxCell>
        <mxCell id="sA6cSm8eI7CGQmD-1CtN-22" value="User" style="text;html=1;strokeColor=none;fillColor=none;align=center;verticalAlign=middle;whiteSpace=wrap;rounded=0;" vertex="1" parent="1">
          <mxGeometry x="180" y="330" width="60" height="30" as="geometry" />
        </mxCell>
        <mxCell id="sA6cSm8eI7CGQmD-1CtN-23" value="Customer" style="text;html=1;strokeColor=none;fillColor=none;align=center;verticalAlign=middle;whiteSpace=wrap;rounded=0;" vertex="1" parent="1">
          <mxGeometry x="380" y="330" width="60" height="30" as="geometry" />
        </mxCell>
        <mxCell id="sA6cSm8eI7CGQmD-1CtN-25" value="Admin" style="text;html=1;strokeColor=none;fillColor=none;align=center;verticalAlign=middle;whiteSpace=wrap;rounded=0;" vertex="1" parent="1">
          <mxGeometry x="590" y="330" width="60" height="30" as="geometry" />
        </mxCell>
        <mxCell id="sA6cSm8eI7CGQmD-1CtN-28" value="" style="ellipse;html=1;shape=startState;fillColor=#000000;strokeColor=#ff0000;" vertex="1" parent="1">
          <mxGeometry x="40" y="380" width="30" height="30" as="geometry" />
        </mxCell>
        <mxCell id="sA6cSm8eI7CGQmD-1CtN-44" value="" style="endArrow=classic;html=1;rounded=0;exitX=1;exitY=0.5;exitDx=0;exitDy=0;entryX=0;entryY=0.5;entryDx=0;entryDy=0;" edge="1" parent="1" source="sA6cSm8eI7CGQmD-1CtN-28">
          <mxGeometry width="50" height="50" relative="1" as="geometry">
            <mxPoint x="400" y="600" as="sourcePoint" />
            <mxPoint x="160" y="395" as="targetPoint" />
          </mxGeometry>
        </mxCell>
        <mxCell id="sA6cSm8eI7CGQmD-1CtN-45" value="&lt;font style=&quot;font-size: 14px&quot;&gt;Start&lt;/font&gt;" style="text;html=1;align=center;verticalAlign=middle;resizable=0;points=[];autosize=1;strokeColor=none;fillColor=none;" vertex="1" parent="1">
          <mxGeometry x="30" y="350" width="50" height="20" as="geometry" />
        </mxCell>
        <mxCell id="sA6cSm8eI7CGQmD-1CtN-53" value="Register/Login" style="rounded=1;whiteSpace=wrap;html=1;arcSize=40;fontColor=#000000;fillColor=#ffffc0;strokeColor=#ff0000;" vertex="1" parent="1">
          <mxGeometry x="160" y="380" width="120" height="40" as="geometry" />
        </mxCell>
        <mxCell id="sA6cSm8eI7CGQmD-1CtN-60" value="Credential verification" style="rhombus;whiteSpace=wrap;html=1;" vertex="1" parent="1">
          <mxGeometry x="545" y="370" width="150" height="60" as="geometry" />
        </mxCell>
        <mxCell id="sA6cSm8eI7CGQmD-1CtN-61" value="" style="endArrow=open;html=1;rounded=0;align=center;verticalAlign=top;endFill=0;labelBackgroundColor=none;entryX=0;entryY=0.5;entryDx=0;entryDy=0;exitX=1;exitY=0.5;exitDx=0;exitDy=0;" edge="1" parent="1" source="sA6cSm8eI7CGQmD-1CtN-53" target="sA6cSm8eI7CGQmD-1CtN-60">
          <mxGeometry relative="1" as="geometry">
            <mxPoint x="370" y="540" as="sourcePoint" />
            <mxPoint x="530" y="540" as="targetPoint" />
          </mxGeometry>
        </mxCell>
        <mxCell id="sA6cSm8eI7CGQmD-1CtN-64" value="" style="endArrow=classic;html=1;rounded=0;entryX=0.5;entryY=0;entryDx=0;entryDy=0;" edge="1" parent="1" target="sA6cSm8eI7CGQmD-1CtN-53">
          <mxGeometry width="50" height="50" relative="1" as="geometry">
            <mxPoint x="590" y="380" as="sourcePoint" />
            <mxPoint x="470" y="510" as="targetPoint" />
          </mxGeometry>
        </mxCell>
        <mxCell id="sA6cSm8eI7CGQmD-1CtN-69" value="" style="edgeStyle=orthogonalEdgeStyle;html=1;verticalAlign=bottom;endArrow=open;endSize=8;strokeColor=#ff0000;rounded=0;exitX=0.5;exitY=1;exitDx=0;exitDy=0;entryX=0.5;entryY=0;entryDx=0;entryDy=0;" edge="1" source="sA6cSm8eI7CGQmD-1CtN-60" parent="1" target="sA6cSm8eI7CGQmD-1CtN-70">
          <mxGeometry relative="1" as="geometry">
            <mxPoint x="450" y="590" as="targetPoint" />
            <mxPoint x="450" y="530" as="sourcePoint" />
            <Array as="points">
              <mxPoint x="620" y="440" />
              <mxPoint x="620" y="440" />
            </Array>
          </mxGeometry>
        </mxCell>
        <mxCell id="sA6cSm8eI7CGQmD-1CtN-75" value="" style="edgeStyle=orthogonalEdgeStyle;rounded=0;orthogonalLoop=1;jettySize=auto;html=1;" edge="1" parent="1" source="sA6cSm8eI7CGQmD-1CtN-70" target="sA6cSm8eI7CGQmD-1CtN-74">
          <mxGeometry relative="1" as="geometry" />
        </mxCell>
        <mxCell id="sA6cSm8eI7CGQmD-1CtN-70" value="Login Succesful" style="rounded=1;whiteSpace=wrap;html=1;arcSize=40;fontColor=#000000;fillColor=#ffffc0;strokeColor=#ff0000;" vertex="1" parent="1">
          <mxGeometry x="560" y="450" width="120" height="40" as="geometry" />
        </mxCell>
        <mxCell id="sA6cSm8eI7CGQmD-1CtN-72" value="Yes" style="text;html=1;strokeColor=none;fillColor=none;align=center;verticalAlign=middle;whiteSpace=wrap;rounded=0;" vertex="1" parent="1">
          <mxGeometry x="640" y="420" width="30" height="30" as="geometry" />
        </mxCell>
        <mxCell id="sA6cSm8eI7CGQmD-1CtN-73" value="No" style="text;html=1;strokeColor=none;fillColor=none;align=center;verticalAlign=middle;whiteSpace=wrap;rounded=0;" vertex="1" parent="1">
          <mxGeometry x="530" y="370" width="60" as="geometry" />
        </mxCell>
        <mxCell id="sA6cSm8eI7CGQmD-1CtN-77" value="" style="edgeStyle=orthogonalEdgeStyle;rounded=0;orthogonalLoop=1;jettySize=auto;html=1;" edge="1" parent="1" source="sA6cSm8eI7CGQmD-1CtN-74" target="sA6cSm8eI7CGQmD-1CtN-76">
          <mxGeometry relative="1" as="geometry" />
        </mxCell>
        <mxCell id="sA6cSm8eI7CGQmD-1CtN-74" value="Search restaurant&amp;nbsp;" style="rounded=1;whiteSpace=wrap;html=1;arcSize=40;fontColor=#000000;fillColor=#ffffc0;strokeColor=#ff0000;" vertex="1" parent="1">
          <mxGeometry x="360" y="450" width="120" height="40" as="geometry" />
        </mxCell>
        <mxCell id="sA6cSm8eI7CGQmD-1CtN-87" value="" style="edgeStyle=orthogonalEdgeStyle;rounded=0;orthogonalLoop=1;jettySize=auto;html=1;" edge="1" parent="1" source="sA6cSm8eI7CGQmD-1CtN-76" target="sA6cSm8eI7CGQmD-1CtN-86">
          <mxGeometry relative="1" as="geometry" />
        </mxCell>
        <mxCell id="sA6cSm8eI7CGQmD-1CtN-76" value="View the Menu item based on time" style="rounded=1;whiteSpace=wrap;html=1;arcSize=40;fontColor=#000000;fillColor=#ffffc0;strokeColor=#ff0000;" vertex="1" parent="1">
          <mxGeometry x="360" y="587.5" width="120" height="40" as="geometry" />
        </mxCell>
        <mxCell id="sA6cSm8eI7CGQmD-1CtN-78" value="Restaurant" style="swimlane;fontStyle=1;align=center;verticalAlign=middle;childLayout=stackLayout;horizontal=1;startSize=30;horizontalStack=0;resizeParent=0;resizeLast=1;container=0;fontColor=#000000;collapsible=0;rounded=1;arcSize=30;strokeColor=#ff0000;fillColor=#ffffc0;swimlaneFillColor=#ffffc0;dropTarget=0;" vertex="1" parent="1">
          <mxGeometry x="570" y="500" width="110" height="60" as="geometry" />
        </mxCell>
        <mxCell id="sA6cSm8eI7CGQmD-1CtN-79" value="Add/Delete Restaurant" style="text;html=1;strokeColor=none;fillColor=none;align=center;verticalAlign=middle;spacingLeft=4;spacingRight=4;whiteSpace=wrap;overflow=hidden;rotatable=0;fontColor=#000000;" vertex="1" parent="sA6cSm8eI7CGQmD-1CtN-78">
          <mxGeometry y="30" width="110" height="30" as="geometry" />
        </mxCell>
        <mxCell id="sA6cSm8eI7CGQmD-1CtN-81" value="Menu" style="swimlane;fontStyle=1;align=center;verticalAlign=middle;childLayout=stackLayout;horizontal=1;startSize=30;horizontalStack=0;resizeParent=0;resizeLast=1;container=0;fontColor=#000000;collapsible=0;rounded=1;arcSize=30;strokeColor=#ff0000;fillColor=#ffffc0;swimlaneFillColor=#ffffc0;dropTarget=0;" vertex="1" parent="1">
          <mxGeometry x="571" y="575" width="110" height="65" as="geometry" />
        </mxCell>
        <mxCell id="sA6cSm8eI7CGQmD-1CtN-82" value="Add/delete menu item&lt;br&gt;" style="text;html=1;strokeColor=none;fillColor=none;align=center;verticalAlign=middle;spacingLeft=4;spacingRight=4;whiteSpace=wrap;overflow=hidden;rotatable=0;fontColor=#000000;" vertex="1" parent="sA6cSm8eI7CGQmD-1CtN-81">
          <mxGeometry y="30" width="110" height="35" as="geometry" />
        </mxCell>
        <mxCell id="sA6cSm8eI7CGQmD-1CtN-83" value="" style="edgeStyle=orthogonalEdgeStyle;html=1;verticalAlign=bottom;endArrow=open;endSize=8;strokeColor=#ff0000;rounded=0;entryX=1;entryY=0.5;entryDx=0;entryDy=0;" edge="1" source="sA6cSm8eI7CGQmD-1CtN-81" parent="1" target="sA6cSm8eI7CGQmD-1CtN-76">
          <mxGeometry relative="1" as="geometry">
            <mxPoint x="490" y="590" as="targetPoint" />
          </mxGeometry>
        </mxCell>
        <mxCell id="sA6cSm8eI7CGQmD-1CtN-85" style="edgeStyle=orthogonalEdgeStyle;rounded=0;orthogonalLoop=1;jettySize=auto;html=1;exitX=0;exitY=0;exitDx=0;exitDy=0;entryX=1;entryY=0.75;entryDx=0;entryDy=0;" edge="1" parent="1" source="sA6cSm8eI7CGQmD-1CtN-79" target="sA6cSm8eI7CGQmD-1CtN-74">
          <mxGeometry relative="1" as="geometry">
            <Array as="points">
              <mxPoint x="480" y="530" />
            </Array>
          </mxGeometry>
        </mxCell>
        <mxCell id="sA6cSm8eI7CGQmD-1CtN-93" value="" style="edgeStyle=orthogonalEdgeStyle;rounded=0;orthogonalLoop=1;jettySize=auto;html=1;" edge="1" parent="1" source="sA6cSm8eI7CGQmD-1CtN-86" target="sA6cSm8eI7CGQmD-1CtN-92">
          <mxGeometry relative="1" as="geometry" />
        </mxCell>
        <mxCell id="sA6cSm8eI7CGQmD-1CtN-86" value="Select the required menu item with respective price" style="rounded=1;whiteSpace=wrap;html=1;arcSize=40;fontColor=#000000;fillColor=#ffffc0;strokeColor=#ff0000;" vertex="1" parent="1">
          <mxGeometry x="360" y="650" width="120" height="40" as="geometry" />
        </mxCell>
        <mxCell id="sA6cSm8eI7CGQmD-1CtN-88" value="displayPrice" style="swimlane;fontStyle=1;align=center;verticalAlign=middle;childLayout=stackLayout;horizontal=1;startSize=30;horizontalStack=0;resizeParent=0;resizeLast=1;container=0;fontColor=#000000;collapsible=0;rounded=1;arcSize=30;strokeColor=#ff0000;fillColor=#ffffc0;swimlaneFillColor=#ffffc0;dropTarget=0;" vertex="1" parent="1">
          <mxGeometry x="570" y="650" width="110" height="60" as="geometry" />
        </mxCell>
        <mxCell id="sA6cSm8eI7CGQmD-1CtN-89" value="Add the total sum of Items" style="text;html=1;strokeColor=none;fillColor=none;align=center;verticalAlign=middle;spacingLeft=4;spacingRight=4;whiteSpace=wrap;overflow=hidden;rotatable=0;fontColor=#000000;" vertex="1" parent="sA6cSm8eI7CGQmD-1CtN-88">
          <mxGeometry y="30" width="110" height="30" as="geometry" />
        </mxCell>
        <mxCell id="sA6cSm8eI7CGQmD-1CtN-90" value="" style="edgeStyle=orthogonalEdgeStyle;html=1;verticalAlign=bottom;endArrow=open;endSize=8;strokeColor=#ff0000;rounded=0;entryX=1;entryY=0.75;entryDx=0;entryDy=0;" edge="1" source="sA6cSm8eI7CGQmD-1CtN-88" parent="1" target="sA6cSm8eI7CGQmD-1CtN-86">
          <mxGeometry relative="1" as="geometry">
            <mxPoint x="650" y="790" as="targetPoint" />
          </mxGeometry>
        </mxCell>
        <mxCell id="sA6cSm8eI7CGQmD-1CtN-95" value="" style="edgeStyle=orthogonalEdgeStyle;rounded=0;orthogonalLoop=1;jettySize=auto;html=1;" edge="1" parent="1" source="sA6cSm8eI7CGQmD-1CtN-92" target="sA6cSm8eI7CGQmD-1CtN-94">
          <mxGeometry relative="1" as="geometry" />
        </mxCell>
        <mxCell id="sA6cSm8eI7CGQmD-1CtN-92" value="Invalid Restaurant Search" style="rounded=1;whiteSpace=wrap;html=1;arcSize=40;fontColor=#000000;fillColor=#ffffc0;strokeColor=#ff0000;" vertex="1" parent="1">
          <mxGeometry x="360" y="710" width="120" height="40" as="geometry" />
        </mxCell>
        <mxCell id="sA6cSm8eI7CGQmD-1CtN-94" value="Output the exception" style="rounded=1;whiteSpace=wrap;html=1;arcSize=40;fontColor=#000000;fillColor=#ffffc0;strokeColor=#ff0000;" vertex="1" parent="1">
          <mxGeometry x="360" y="770" width="120" height="40" as="geometry" />
        </mxCell>
        <mxCell id="sA6cSm8eI7CGQmD-1CtN-99" value="" style="ellipse;html=1;shape=endState;fillColor=#000000;strokeColor=#ff0000;" vertex="1" parent="1">
          <mxGeometry x="40" y="775" width="30" height="30" as="geometry" />
        </mxCell>
        <mxCell id="sA6cSm8eI7CGQmD-1CtN-100" value="" style="endArrow=classic;html=1;rounded=0;exitX=0;exitY=0.5;exitDx=0;exitDy=0;entryX=1;entryY=0.5;entryDx=0;entryDy=0;" edge="1" parent="1" source="sA6cSm8eI7CGQmD-1CtN-94" target="sA6cSm8eI7CGQmD-1CtN-99">
          <mxGeometry width="50" height="50" relative="1" as="geometry">
            <mxPoint x="420" y="720" as="sourcePoint" />
            <mxPoint x="470" y="670" as="targetPoint" />
          </mxGeometry>
        </mxCell>
        <mxCell id="sA6cSm8eI7CGQmD-1CtN-102" value="&lt;font style=&quot;font-size: 14px&quot;&gt;Stop&lt;/font&gt;" style="text;html=1;strokeColor=none;fillColor=none;align=center;verticalAlign=middle;whiteSpace=wrap;rounded=0;" vertex="1" parent="1">
          <mxGeometry x="25" y="740" width="60" height="30" as="geometry" />
        </mxCell>
        <mxCell id="sA6cSm8eI7CGQmD-1CtN-103" value="&lt;h1&gt;&lt;font style=&quot;font-size: 18px&quot; face=&quot;Times New Roman&quot;&gt;Restaurant Finder&lt;/font&gt;&lt;/h1&gt;" style="text;html=1;strokeColor=none;fillColor=none;align=center;verticalAlign=middle;whiteSpace=wrap;rounded=0;fontSize=14;" vertex="1" parent="1">
          <mxGeometry x="330" y="270" width="200" height="30" as="geometry" />
        </mxCell>
      </root>
    </mxGraphModel>
  </diagram>
</mxfile>
